<svg width="100%" height="100%" viewBox="0 0 1181 125" fill="none" xmlns="http://www.w3.org/2000/svg">
<path fill-rule="evenodd" clip-rule="evenodd" d="M124.674 0H0V125H124.671V81.3663H103.981C96.849 97.2841 80.7956 108.371 62.424 108.371C37.0968 108.371 16.586 87.629 16.586 62.4124C16.586 37.1963 37.0968 16.6319 62.424 16.6319C81.1518 16.6319 97.2051 28.0777 104.34 44.35H124.674V0ZM245.411 81.3639C238.1 97.2812 222.225 108.367 203.677 108.368C179.062 108.368 158.908 88.6973 158.016 64.1977H266.101V0H141.427V124.997H266.101V81.3639H245.411ZM247.009 48.8197H159.97C165.499 28.2551 183.868 16.6321 203.666 16.6321C223.465 16.6321 240.589 27.5385 247.009 48.8197ZM535.321 62.41C535.321 87.8037 514.986 108.368 489.659 108.368C464.51 108.368 443.999 87.6261 443.999 62.41C443.999 37.1938 464.333 16.6294 489.659 16.6294C514.986 16.6294 535.321 37.0165 535.321 62.41ZM552.083 0H427.411V125H552.083V0ZM391.133 81.3639H411.823V124.997H282.692V0H303.738V62.41C303.738 90.3079 324.428 108.191 349.041 108.191C368.125 108.191 384.89 97.8161 391.133 81.3639Z" fill="currentColor"></path>
<path d="M646.365 63.1875H635.583V81.5625C635.583 88.5 637.271 89.8125 647.396 90.0938V93H618.99V90.0938C626.865 89.9063 627.802 88.9688 627.802 82.125V40.125C627.802 33.2812 626.865 32.3437 618.99 32.1562V29.25H648.708C662.771 29.25 669.896 34.7812 669.896 45.75C669.896 56.625 660.896 63.1875 646.365 63.1875ZM647.302 32.625H635.583V59.8125H644.958C655.177 59.8125 661.271 54.6562 661.271 45.75C661.271 36.75 657.052 32.625 647.302 32.625Z" fill="currentColor"></path>
<path d="M716.143 48.5625V82.5938C716.143 88.4063 717.643 89.4375 723.362 89.4375V91.875L710.612 93.5625L709.299 92.5312V85.3125C705.831 91.5 701.706 94.3125 695.518 94.3125C687.737 94.3125 682.299 88.9688 682.299 78.75V56.9062C682.299 52.7812 680.893 51.5625 677.049 50.9062V48.5625H689.143V76.9688C689.143 85.0312 692.612 88.0312 697.862 88.0312C702.174 88.0312 705.643 86.0625 709.299 81.6562V57.2812C709.299 52.2187 707.987 51.5625 702.643 51V48.5625H716.143Z" fill="currentColor"></path>
<path d="M756.841 47.4375C767.153 47.4375 774.091 55.9687 774.091 69.5625C774.091 85.2188 766.403 94.3125 754.216 94.3125C748.685 94.3125 743.81 92.25 740.903 88.875L738.653 93.2812H735.653V37.6875C735.653 32.8125 734.528 31.875 728.903 31.875V29.7187L740.435 26.4375H742.497V56.4375C745.778 50.625 750.653 47.4375 756.841 47.4375ZM754.028 90.75C762.091 90.75 766.497 83.9063 766.497 71.9062C766.497 60.6562 761.903 53.9062 754.403 53.9062C749.997 53.9062 746.247 55.6875 742.497 60.0938V77.0625C742.497 86.1562 746.997 90.75 754.028 90.75Z" fill="currentColor"></path>
<path d="M797.183 83.4375C797.183 89.5313 798.308 90.0937 804.496 90.4688V93H783.027V90.4688C788.746 90.0937 790.34 89.5313 790.34 83.4375V37.6875C790.34 32.8125 789.308 31.875 783.59 31.875V29.7187L795.121 26.4375H797.183V83.4375Z" fill="currentColor"></path>
<path d="M823.254 39.6562C819.973 39.6562 817.629 37.3125 817.629 34.0312C817.629 30.75 819.973 28.4062 823.254 28.4062C826.441 28.4062 828.785 30.75 828.785 34.0312C828.785 37.3125 826.441 39.6562 823.254 39.6562ZM833.941 93H812.848V90.4688C819.035 90 819.973 88.9688 819.973 83.7188V59.25C819.973 53.9062 818.941 52.9688 812.848 52.9688V50.8125L824.473 48H826.816V83.7188C826.816 88.9688 827.754 90 833.941 90.4688V93Z" fill="currentColor"></path>
<path d="M863.027 94.3125C850.934 94.3125 843.246 85.5938 843.246 71.8125C843.246 57.0937 851.777 47.4375 864.527 47.4375C873.152 47.4375 879.152 52.3125 879.152 59.0625C879.152 63.0938 876.996 65.7188 873.621 65.7188C870.715 65.7188 868.465 63.8437 868.465 60.6562C868.465 57.375 870.996 56.1562 872.027 53.25C869.871 51.75 867.621 51.0937 864.809 51.0937C855.996 51.0937 849.809 57.9375 849.809 68.7188C849.809 80.0625 855.715 86.5312 864.434 86.5312C870.527 86.5312 875.027 83.3437 876.996 78.4688L879.621 79.2188C877.559 88.875 872.684 94.3125 863.027 94.3125Z" fill="currentColor"></path>
<path d="M947.362 94.3125C927.112 94.3125 913.987 80.9062 913.987 61.5938C913.987 41.625 927.581 27.9375 948.112 27.9375C958.987 27.9375 964.8 31.7812 966.581 31.7812C967.706 31.7812 968.081 30.9375 968.456 28.7812H972.112V49.125H968.268C965.925 37.0312 959.081 31.7812 948.112 31.7812C932.831 31.7812 923.175 42.5625 923.175 61.3125C923.175 79.2187 932.362 90.4688 947.737 90.4688C959.081 90.4688 964.331 86.625 964.331 79.9688V73.125C964.331 67.2188 962.831 66.375 950.737 66V62.625H978.487V66C973.425 66.2812 972.112 67.7812 972.112 74.7188V86.8125C966.862 90.6562 959.456 94.3125 947.362 94.3125Z" fill="currentColor"></path>
<path d="M1009.56 94.3125C996.809 94.3125 988.372 84.9375 988.372 70.9688C988.372 56.9062 996.903 47.4375 1009.65 47.4375C1022.4 47.4375 1030.84 56.8125 1030.84 70.7812C1030.84 84.8438 1022.31 94.3125 1009.56 94.3125ZM1010.31 90.75C1015.93 90.75 1022.68 86.4375 1022.68 72.4688C1022.68 61.6875 1018.18 51 1008.9 51C1003.28 51 996.528 55.3125 996.528 69.2812C996.528 80.0625 1001.03 90.75 1010.31 90.75Z" fill="currentColor"></path>
<path d="M1062.73 94.3125C1049.98 94.3125 1041.54 84.9375 1041.54 70.9688C1041.54 56.9062 1050.07 47.4375 1062.82 47.4375C1075.57 47.4375 1084.01 56.8125 1084.01 70.7812C1084.01 84.8438 1075.48 94.3125 1062.73 94.3125ZM1063.48 90.75C1069.1 90.75 1075.85 86.4375 1075.85 72.4688C1075.85 61.6875 1071.35 51 1062.07 51C1056.44 51 1049.69 55.3125 1049.69 69.2812C1049.69 80.0625 1054.19 90.75 1063.48 90.75Z" fill="currentColor"></path>
<path d="M1133.14 82.4062C1133.14 88.6875 1134.45 90 1140.74 90.4688V93H1127.8L1126.77 92.1562L1126.3 85.3125C1122.74 91.5 1118.33 94.3125 1112.24 94.3125C1101.83 94.3125 1094.7 85.6875 1094.7 72.1875C1094.7 56.9062 1102.39 47.4375 1114.86 47.4375C1118.99 47.4375 1123.39 48.6562 1126.3 51.2812V37.6875C1126.3 32.8125 1124.89 31.875 1117.67 31.875V29.7187L1131.08 26.4375H1133.14V82.4062ZM1114.49 87.8438C1118.8 87.8438 1122.45 86.0625 1126.3 81.6562V63.8438C1126.3 55.4062 1121.99 51 1115.24 51C1106.8 51 1102.3 58.125 1102.3 69.8438C1102.3 81.1875 1106.89 87.8438 1114.49 87.8438Z" fill="currentColor"></path>
<path d="M1164.98 94.3125C1160.29 94.3125 1155.23 93.1875 1151.38 91.125L1150.91 78.4688H1154.57C1155.6 87.1875 1159.63 90.75 1165.73 90.75C1171.07 90.75 1174.35 88.2188 1174.35 84.0938C1174.35 80.4375 1172.48 78.1875 1167.7 76.0312L1160.66 72.8438C1154.48 70.125 1151.1 65.9063 1151.1 60.0938C1151.1 52.125 1157.57 47.4375 1167.04 47.4375C1171.82 47.4375 1176.7 48.5625 1180.54 50.625L1181.01 61.6875H1177.26C1176.32 54.5625 1172.66 51 1166.2 51C1161.13 51 1157.57 53.5312 1157.57 57.75C1157.57 61.4063 1159.54 63.6562 1164.32 65.8125L1171.35 69C1177.63 71.8125 1180.82 75.4687 1180.82 81.4688C1180.82 89.4375 1174.63 94.3125 1164.98 94.3125Z" fill="currentColor"></path>
</svg>