<svg width="1080" height="1080" viewBox="0 0 1080 1080" fill="none" xmlns="http://www.w3.org/2000/svg">
<rect width="1080" height="1080" rx="540" fill="#F2F2F2"/>
<path d="M644.19 315.812L540 210L435.81 315.812L540 421.623L644.19 315.812Z" fill="#F213A4"/>
<path d="M418.09 315.812L313.9 421.623L418.09 527.434L522.28 421.623L418.09 315.812Z" fill="#F213A4"/>
<path d="M644.19 542.566L540 436.755L435.81 542.566L540 648.377L644.19 542.566Z" fill="#F213A4"/>
<path d="M766.1 429.189L661.91 323.378L557.72 429.189L661.91 535L766.1 429.189Z" fill="#F213A4"/>
<path d="M870.3 542.566L766.11 436.755L661.92 542.566L766.11 648.377L870.3 542.566Z" fill="#F213A4"/>
<path d="M766.1 655.943L661.91 550.132L557.72 655.943L661.91 761.754L766.1 655.943Z" fill="#F213A4"/>
<path d="M522.28 429.189L418.09 323.378L313.9 429.189L418.09 535L522.28 429.189Z" fill="#F213A4"/>
<path d="M418.09 542.566L313.9 436.755L209.71 542.566L313.9 648.377L418.09 542.566Z" fill="#F213A4"/>
<path d="M522.28 655.943L418.09 550.132L313.9 655.943L418.09 761.754L522.28 655.943Z" fill="#F213A4"/>
<path d="M644.19 769.32L540 663.509L435.81 769.32L540 875.131L644.19 769.32Z" fill="#F213A4"/>
</svg>

